<svg width="265" height="58" viewBox="0 0 265 58" fill="none" xmlns="http://www.w3.org/2000/svg">
<g filter="url(#filter0_f_280_259)">
<path d="M216.345 17.0486C216.396 13.4697 217.915 10.3742 220.303 7.89222C226.663 1.27052 238.767 0.858403 247.176 3.57587C253.748 5.69841 257.882 11.2511 257.93 18.3407L258.1 42.1472C258.112 43.774 259.274 44.7624 260.693 44.8616C263.171 45.032 263.22 49.0137 262.802 52.3323C262.626 53.7143 261.428 55.152 260.051 55.1613L253.434 55.2078C250.181 55.2295 248.023 52.8405 247.006 49.8658C246.662 48.8588 245.106 49.4599 244.577 50.092C242.434 52.6452 239.956 54.5943 236.697 55.3286C227.374 57.4295 217.098 54.7275 214.58 44.7872C214.111 42.9404 212.598 41.8187 210.828 41.8776C209.049 41.9365 207.769 42.8754 206.97 44.4464C205.031 48.27 202.053 51.2013 198.349 53.234C194.155 55.5362 189.68 56.1281 184.962 55.9205C174.832 55.4774 166.292 48.9269 163.46 38.872C162.819 36.5945 161.49 35.0452 159.218 34.9585C156.945 34.8717 155.435 36.2847 154.718 38.6272C152.427 46.1041 147.005 52.2703 139.603 54.6748C133.803 56.5588 127.485 56.4441 121.841 54.2658C114.921 51.5948 110.076 46.0545 107.734 38.9773C106.99 36.7309 106.279 34.3232 104.167 33.0063C99.5914 30.1525 93.4881 33.4339 91.4425 38.5125L86.2439 51.4182C85.4269 53.4478 83.9351 54.9599 81.6657 54.9568L75.7802 54.9506C73.8739 54.9506 71.9615 53.7762 71.1959 51.9016L64.4359 35.3303C63.4767 32.9785 62.2845 30.8249 60.7806 28.848C58.6352 26.0252 54.7226 25.2939 51.8722 27.4196C50.0233 28.7984 50.0385 32.901 45.9595 32.9072L17.1131 32.9568C15.7091 32.9568 14.8346 34.3294 15.0404 35.6247C15.9663 41.4438 20.6414 45.2675 26.3513 45.6145C30.3607 45.8593 34.4155 44.4154 36.6093 40.8985C37.5201 39.4421 38.3946 38.4196 40.2798 38.4351L45.3482 38.4847C46.3922 38.494 47.5965 39.1292 48.0686 39.8604C50.2836 43.2875 45.1758 49.1376 41.3237 51.8799C36.685 55.183 31.3623 56.1436 25.7704 55.9484C16.2901 55.6199 7.89307 50.2686 4.29521 41.1309C1.12402 33.0683 1.22388 23.9027 4.68859 15.9734C9.3667 5.30489 19.8274 0.833614 31.0234 2.34883C38.6034 3.37446 44.8338 8.18968 48.0353 15.2886C48.7434 16.8565 49.7934 18.0928 51.3063 18.3593C52.8193 18.6258 54.644 18.3903 55.582 16.9618C56.52 15.5334 56.166 13.6711 55.6032 12.1683L53.9268 7.69391C53.5486 6.68067 53.9087 5.21813 54.5562 4.35362C55.0494 3.69672 56.3294 2.96855 57.334 2.97474L62.7565 3.00883C64.8142 3.02122 66.3514 4.48996 67.0382 6.41419L75.7651 30.828C76.5942 33.1458 76.6638 35.2993 75.6773 37.5117C75.0298 38.968 75.2537 40.7187 76.4005 41.7661C77.5474 42.8134 79.2661 42.9126 80.5582 42.0171C81.7776 41.168 82.4101 39.2686 81.7111 37.7503C80.7155 35.5875 80.543 33.5548 81.3631 31.2463L90.1232 6.54123C90.8313 4.54263 92.3715 3.00263 94.5199 3.00573L99.9394 3.01503C100.983 3.01503 102.257 3.79897 102.69 4.51785C103.189 5.34517 103.501 7.06179 103.123 8.02236L98.8016 19.0782C98.1087 20.8474 98.7108 23.0908 100.215 24.0607C101.534 24.9128 103.08 24.9035 104.545 24.2466C107.71 22.8306 107.326 17.4855 111.474 11.6322C117.753 2.77024 129.518 0.130233 139.579 3.30629C147.09 5.67672 152.418 11.7624 154.739 19.3013C155.329 21.2162 156.455 22.6818 158.11 22.9607C160.074 23.2891 162.207 22.6694 162.891 20.6584C164.359 16.3359 166.12 12.2179 169.327 8.97053C171.47 6.79841 173.918 5.02602 176.78 3.90122C183.316 1.33559 190.63 1.3108 197.045 4.1677C203.215 6.91616 207.633 12.4905 208.601 19.2114C208.752 20.2649 208.404 21.5446 207.887 22.2883C207.469 22.8925 206.141 23.4689 205.27 23.4689L199.611 23.4782C197.941 23.4782 196.582 22.1241 196.231 20.5376C195.223 15.9579 191.662 13.2497 187.193 13.0762C182.109 12.8779 177.888 15.5767 176.051 20.6058C174.145 25.8269 174.093 31.8816 175.96 37.1244C177.718 42.0697 181.818 44.9359 186.86 44.8306C191.35 44.7376 195.13 42.0388 196.295 37.4714C196.624 36.1824 197.629 34.6672 199.027 34.4751C202.664 33.9731 206.047 34.2923 209.669 34.8438C211.394 35.1072 213.927 34.7199 214.962 33.1148C217.416 29.3128 220.635 26.583 225.083 25.4613L235.995 23.6548L242.056 22.5083C244.201 22.1024 245.167 20.079 245.176 17.9812C245.185 15.6604 244.086 13.6122 241.838 12.7508C236.924 10.87 229.417 11.8522 228.376 17.4235C228.106 18.8612 227.114 20.3796 225.562 20.3827L219.277 20.4044C217.579 20.4105 216.317 18.8798 216.345 17.0424V17.0486ZM36.1373 23.7849C39.2479 23.7849 37.7077 18.1393 34.5396 15.1027C31.4773 12.1683 26.9989 11.3843 22.7807 12.7601C17.3098 14.548 14.0115 21.0489 15.4186 23.0567C15.6728 23.4193 16.4807 23.7973 17.0284 23.7973L36.1373 23.7818V23.7849ZM130.235 44.8213C135.534 45.2489 139.951 42.4416 141.921 37.4993C144.021 32.2317 144.006 26.2266 142.091 20.897C140.384 16.1469 136.438 13.197 131.585 13.0731C126.731 12.9491 122.313 15.7255 120.425 20.5841C118.28 26.0996 118.243 32.3556 120.604 37.8494C122.322 41.8497 125.923 44.4742 130.232 44.8213H130.235ZM230.47 45.6672C236.985 47.7154 244.341 44.5517 245.164 37.7472C245.403 35.7641 246.229 34.1249 247.318 32.523C248.598 30.6359 247.802 28.1384 246.023 27.2337C244.023 26.2173 241.826 27.4351 241.157 29.5855C240.579 31.4446 239.215 32.2751 237.36 32.5694L231.178 33.5455C228.073 34.3976 226.252 37.0562 226.488 40.2787C226.666 42.7173 227.97 44.8802 230.467 45.6641L230.47 45.6672Z" fill="#F7F1EE"/>
</g>
<defs>
<filter id="filter0_f_280_259" x="0" y="0" width="265" height="58" filterUnits="userSpaceOnUse" color-interpolation-filters="sRGB">
<feFlood flood-opacity="0" result="BackgroundImageFix"/>
<feBlend mode="normal" in="SourceGraphic" in2="BackgroundImageFix" result="shape"/>
<feGaussianBlur stdDeviation="1" result="effect1_foregroundBlur_280_259"/>
</filter>
</defs>
</svg>
